<svg xmlns="http://www.w3.org/2000/svg" viewBox="0 0 1000 1000" xmlns:v="https://vecta.io/nano"><g fill="#171515"><path d="M545.9 727.8c12-29.8 20.7-56.3 26.1-78.9H451.5c5.1 22.7 13.6 49.2 26.1 78.9zM375.3 525.6H643v-36.7H397.436 375.3zM155.2 10C75 10 10 75 10 155.2v689.6C10 925 75 990 155.2 990h689.6C925 990 990 925 990 844.8V155.2C990 75 925 10 844.8 10zm613.6 641.4h-65.5l-23.8 76.4h139.2v118H202.2v-118h141.6c-10.5-22.7-20.2-49.2-28.7-78.9h-65.7V431.09 371h519.4zm42.1-306.7H204.7V221.2h606.1z" stroke="#fff"/><path d="M202.724 786.859v-58.494h70.513c38.782 0 70.513-.483 70.513-1.074s-3.909-10.867-8.688-22.837-11.052-29.515-13.943-38.99l-5.255-17.228h-32.532-32.532V509.615 370.994h258.814 258.814v140.192 140.192l-33.13.433-33.13.433-11.74 37.66-11.742 38.061c-.001.22 31.368.401 69.709.401h69.712v58.494 58.494H510.417 202.724zm351.754-78.926c6.055-16.442 18.438-56.082 18.438-59.022 0-.37-27.484-.673-61.076-.673h-61.076l1.071 5.708c2.15 11.46 15.102 50.785 22.795 69.212l2.175 5.208h35.074 35.074zm88.951-200.721v-19.231H508.814 374.199v19.231 19.231h134.615 134.615z"/><path d="M202.724 786.859v-58.494h70.513c61.184 0 70.513-.314 70.513-2.372 0-1.304-2.968-9.778-6.595-18.83s-9.696-25.833-13.486-37.292l-6.89-20.833-32.989-.433-32.989-.433V509.583 370.994h258.823 258.823l-.409 139.824-.409 139.824-33.14.433-33.14.433-1.624 5.176-21.039 69.788c0 1.429 17.132 1.895 69.712 1.895h69.712v58.494 58.494H510.417 202.724zM560.7 691.687c6.719-20.173 12.217-38.202 12.217-40.064v-3.386H511.36h-61.557l2.177 9.331c2.91 12.474 11.023 37.76 17.958 55.973l5.645 14.824h36.449 36.449zm82.73-184.475v-19.231H508.814 374.199v19.231 19.231h134.615 134.615z"/></g><path d="M205.929 282.853v-60.897h302.083 302.083v60.897 60.897H508.013 205.929zm-3.205 504.006v-58.494h70.513c56.969 0 70.513-.402 70.513-2.094 0-1.152-2.96-9.625-6.578-18.83s-9.686-26.111-13.486-37.57l-6.907-20.833-32.989-.433-32.989-.433V509.583 370.994h258.823 258.823l-.409 139.824-.409 139.824-33.155.433c-29.825.389-33.237.711-33.97 3.205l-11.316 36.629c-5.776 18.621-10.501 34.667-10.501 35.657 0 1.305 19.195 1.801 69.712 1.801h69.712v58.494 58.494H510.417 202.724zm357.992-95.325c6.71-20.257 12.2-38.286 12.2-40.064 0-3.186-.894-3.233-61.528-3.233H449.86l1.517 6.811c2.549 11.445 9.356 33.048 16.915 53.686l7.191 19.631H512h36.517zm82.713-184.322v-19.231H508.814 374.199v19.231 19.231h134.615 134.615z" fill="#fff"/></svg>