<svg xmlns="http://www.w3.org/2000/svg" width="300" height="300" xmlns:v="https://vecta.io/nano"><path d="M50 0C22.386 0 0 22.386 0 50v200c0 27.614 22.386 50 50 50h200c27.614 0 50-22.386 50-50V50c0-27.614-22.386-50-50-50H50z"/><path d="M300 50c0-27.614-22.386-50-50-50H50C22.386 0 0 22.386 0 50v200c0 27.614 22.386 50 50 50h200c27.614 0 50-22.386 50-50V50z" opacity=".3" fill="#171515"/><path d="M60.565 83.968h179.947l-20.037 19.772-24.462 24.103-14.051 13.911-24.515 24.086c-4.124 3.564-11.214 3.43-14.942-.639l-81.94-81.234zm-2.04 125.831l-.001-117.858 56.574 56.979-56.573 60.879zm182.951.464V92.405l-56.574 56.979 56.573 60.879zm-180.214 5.77l58.632-62.466c4.194 4.004 12.348 11.358 16.597 15.308 9.977 8.884 19.58 8.753 29.306-.433l14.743-14.487 56.995 62.078-176.274.001z" fill="#fff"/></svg>